<svg width="44" height="44" viewBox="0 0 44 44" fill="none" xmlns="http://www.w3.org/2000/svg">
<path fill-rule="evenodd" clip-rule="evenodd" d="M26.3998 5.86665C27.2098 5.25914 28.3589 5.4233 28.9665 6.23332L33.9165 12.8333H33.9224C37.2931 12.8333 39.871 15.838 39.3584 19.1697L37.3841 32.003C36.9712 34.6861 34.6627 36.6667 31.9479 36.6667H12.0517C9.33708 36.6667 7.02845 34.6861 6.61568 32.003L4.64131 19.1697C4.12874 15.838 6.70648 12.8333 10.0774 12.8333H10.0832L15.0332 6.23332C15.6407 5.4233 16.7898 5.25914 17.5998 5.86665C18.4098 6.47416 18.5741 7.6233 17.9665 8.43332L14.6665 12.8333H29.3332L26.0332 8.43332C25.4256 7.6233 25.5899 6.47416 26.3998 5.86665ZM10.9785 16.5C10.9918 16.5001 11.0051 16.5001 11.0184 16.5H32.9813H33.0213H33.9224C35.046 16.5 35.9051 17.5015 35.7342 18.6122L33.7599 31.4455C33.6224 32.3398 32.8528 33 31.9479 33H12.0517C11.1468 33 10.3773 32.3398 10.2397 31.4455L8.26535 18.6122C8.09448 17.5015 8.95373 16.5 10.0774 16.5H10.9785Z" fill="#C0C0C0"/>
</svg>
