<svg width="452" height="231" viewBox="0 0 452 231" fill="none" xmlns="http://www.w3.org/2000/svg">
<path d="M20.0625 156H5.5625C5.22917 156 5.0625 155.792 5.0625 155.375L5.3125 67.4375C5.3125 67.1042 5.47917 66.9375 5.8125 66.9375H31.6875C36.3125 66.9375 40.5625 68.0625 44.4375 70.3125C48.3125 72.5625 51.3958 75.5833 53.6875 79.375C56.0208 83.1667 57.1875 87.4583 57.1875 92.25C57.1875 95.375 56.7083 98.2083 55.75 100.75C54.7917 103.292 53.6667 105.438 52.375 107.188C51.125 108.938 49.9792 110.229 48.9375 111.062C53.5625 116.188 55.875 122.208 55.875 129.125L56 155.375C56 155.792 55.7917 156 55.375 156H40.875C40.5417 156 40.375 155.875 40.375 155.625V129.125C40.375 126.042 39.2917 123.375 37.125 121.125C34.9583 118.875 32.2917 117.75 29.125 117.75H20.6875L20.5625 155.375C20.5625 155.792 20.3958 156 20.0625 156ZM31.6875 82.25H20.6875V102.375H31.6875C34.3125 102.375 36.6458 101.396 38.6875 99.4375C40.7708 97.4792 41.8125 95.0833 41.8125 92.25C41.8125 89.5417 40.8125 87.2083 38.8125 85.25C36.8125 83.25 34.4375 82.25 31.6875 82.25ZM156.875 157.25C152.25 157.25 148.021 156.083 144.188 153.75C140.396 151.417 137.375 148.292 135.125 144.375C132.917 140.417 131.812 136.021 131.812 131.188L131.938 91.25C131.938 86.5 133.021 82.2083 135.188 78.375C137.354 74.5 140.333 71.3958 144.125 69.0625C147.958 66.6875 152.208 65.5 156.875 65.5C161.625 65.5 165.854 66.6458 169.562 68.9375C173.312 71.2292 176.292 74.3333 178.5 78.25C180.75 82.125 181.875 86.4583 181.875 91.25V97.125C181.875 97.4583 181.708 97.625 181.375 97.625H167C166.667 97.625 166.5 97.4583 166.5 97.125V91.25C166.5 88.4167 165.583 85.9792 163.75 83.9375C161.917 81.8958 159.625 80.875 156.875 80.875C153.833 80.875 151.5 81.9167 149.875 84C148.25 86.0833 147.438 88.5 147.438 91.25V131.188C147.438 134.312 148.354 136.875 150.188 138.875C152.021 140.833 154.25 141.812 156.875 141.812C159.625 141.812 161.917 140.729 163.75 138.562C165.583 136.354 166.5 133.896 166.5 131.188V125.25C166.5 124.917 166.667 124.75 167 124.75H181.5C181.833 124.75 182 124.917 182 125.25V131.188C182 135.979 180.875 140.354 178.625 144.312C176.333 148.229 173.312 151.375 169.562 153.75C165.812 156.083 161.583 157.25 156.875 157.25ZM206.312 156H191.812C191.479 156 191.312 155.792 191.312 155.375L191.562 67.5625C191.562 67.1458 191.729 66.9375 192.062 66.9375H206.438C206.771 66.9375 206.938 67.1458 206.938 67.5625V97.875L227 67.4375C227.333 67.1042 227.646 66.9375 227.938 66.9375H242.625C243 66.9375 243.083 67.1042 242.875 67.4375L220.75 102.75L245.562 155.5C245.771 155.833 245.562 156 244.938 156H229.312C228.896 156 228.646 155.833 228.562 155.5L211.25 117.875L206.812 124.875V155.375C206.812 155.792 206.646 156 206.312 156ZM266.312 156H251.812C251.479 156 251.312 155.792 251.312 155.375L251.438 67.4375C251.438 67.1042 251.646 66.9375 252.062 66.9375H266.312C266.729 66.9375 266.938 67.1042 266.938 67.4375L266.812 102.25H286V67.4375C286 67.1042 286.167 66.9375 286.5 66.9375H300.75C301.167 66.9375 301.375 67.1042 301.375 67.4375L301.625 155.375C301.625 155.792 301.417 156 301 156H286.625C286.208 156 286 155.792 286 155.375V117.75H266.812V155.375C266.812 155.792 266.646 156 266.312 156ZM335.625 157.25C331.125 157.25 326.958 156.083 323.125 153.75C319.292 151.417 316.229 148.292 313.938 144.375C311.688 140.417 310.562 136.104 310.562 131.438L310.812 67.4375C310.812 67.1042 310.979 66.9375 311.312 66.9375H325.688C326.021 66.9375 326.188 67.1042 326.188 67.4375V131.438C326.188 134.312 327.104 136.771 328.938 138.812C330.771 140.812 333 141.812 335.625 141.812C338.375 141.812 340.667 140.812 342.5 138.812C344.333 136.771 345.25 134.312 345.25 131.438V67.4375C345.25 67.1042 345.417 66.9375 345.75 66.9375H360.125C360.458 66.9375 360.625 67.1042 360.625 67.4375L360.875 131.438C360.875 136.146 359.75 140.479 357.5 144.438C355.208 148.354 352.167 151.479 348.375 153.812C344.583 156.104 340.333 157.25 335.625 157.25ZM394.375 156H371.438C371.104 156 370.938 155.792 370.938 155.375L371.188 67.4375C371.188 67.1042 371.354 66.9375 371.688 66.9375H396.312C401.104 66.9375 405.458 68.1042 409.375 70.4375C413.208 72.7708 416.229 75.875 418.438 79.75C420.646 83.5833 421.75 87.75 421.75 92.25C421.75 95.9167 420.917 99.3333 419.25 102.5C417.583 105.667 415.604 108.229 413.312 110.188C415.771 112.646 417.688 115.5 419.062 118.75C420.438 122 421.125 125.417 421.125 129C421.125 133.958 419.938 138.479 417.562 142.562C415.146 146.646 411.917 149.917 407.875 152.375C403.833 154.792 399.333 156 394.375 156ZM396.312 82.125H386.562V102.25H396.312C399.271 102.25 401.667 101.208 403.5 99.125C405.333 97 406.25 94.7083 406.25 92.25C406.25 89.5417 405.271 87.1875 403.312 85.1875C401.354 83.1458 399.021 82.125 396.312 82.125ZM394.375 117.75H386.562L386.438 140.375H394.375C397.458 140.375 400.104 139.25 402.312 137C404.521 134.75 405.625 132.083 405.625 129C405.625 125.917 404.521 123.271 402.312 121.062C400.104 118.854 397.458 117.75 394.375 117.75Z" fill="white"/>
<path d="M446.062 156H431.562C431.229 156 431.062 155.833 431.062 155.5V141C431.062 140.667 431.229 140.5 431.562 140.5H446.062C446.396 140.5 446.562 140.667 446.562 141V155.5C446.562 155.833 446.396 156 446.062 156Z" fill="white"/>
<path d="M94.0323 157C89.3383 157 85.0104 155.805 81.0484 153.414C77.1296 151.024 73.9644 147.843 71.5528 143.873C69.1843 139.861 68 135.464 68 130.683L68.1292 89.1253C68.1292 84.2589 69.3135 79.8833 71.682 75.9986C74.0075 72.0713 77.1511 68.9337 81.113 66.5858C85.0749 64.1953 89.3814 63 94.0323 63C98.8555 63 103.183 64.1739 107.016 66.5218C110.892 68.8697 113.993 72.0286 116.318 75.9986C118.687 79.926 119.871 84.3015 119.871 89.1253L120 130.683C120 135.464 118.837 139.839 116.512 143.809C114.143 147.822 111 151.024 107.081 153.414C103.162 155.805 98.8124 157 94.0323 157ZM94.0323 141.184C96.7023 141.184 99.0277 140.117 101.009 137.982C102.99 135.805 103.98 133.372 103.98 130.683L103.851 89.1253C103.851 86.2225 102.925 83.7679 101.073 81.7616C99.2215 79.7552 96.8745 78.752 94.0323 78.752C91.3193 78.752 88.9938 79.7339 87.0559 81.6975C85.118 83.6612 84.1491 86.1371 84.1491 89.1253V130.683C84.1491 133.543 85.118 136.019 87.0559 138.11C88.9938 140.159 91.3193 141.184 94.0323 141.184Z" fill="white"/>
<path d="M84 89.2376L101.965 52.6832L142 29L108.124 75.3366L123.522 70.1881L84 133V122.188L94.7788 89.2376L84 94.3861V89.2376Z" fill="#FFD600" stroke="white"/>
<path d="M6.07199 176.768V192H4.79199V175.616H6.83999L13.112 190.496L19.352 175.616H21.4V192H20.12V176.768H20.056L13.784 192H12.44L6.13599 176.768H6.07199ZM39.1243 190.848V191.872C38.7616 192 38.3243 192.064 37.8123 192.064C37.0869 192.064 36.5856 191.872 36.3083 191.488C36.0523 191.083 35.9243 190.357 35.9243 189.312V188.512C35.2203 189.877 34.3669 190.88 33.3643 191.52C32.3616 192.139 31.0816 192.448 29.5243 192.448C27.8176 192.448 26.4843 192.043 25.5243 191.232C24.5856 190.421 24.1163 189.301 24.1163 187.872C24.1163 184.864 26.2069 183.189 30.3883 182.848C32.5856 182.677 33.9509 182.539 34.4843 182.432C35.0176 182.304 35.3909 182.069 35.6043 181.728C35.7536 181.493 35.8283 180.928 35.8283 180.032C35.8283 178.795 35.4336 177.856 34.6443 177.216C33.8549 176.576 32.7029 176.256 31.1883 176.256C28.1376 176.256 26.4843 177.717 26.2283 180.64H25.0123C25.1189 178.869 25.7163 177.515 26.8043 176.576C27.8923 175.637 29.3963 175.168 31.3163 175.168C33.5136 175.168 35.1349 175.755 36.1803 176.928C36.4789 177.269 36.7029 177.685 36.8523 178.176C37.0016 178.645 37.0763 179.029 37.0763 179.328C37.0976 179.627 37.1083 180.096 37.1083 180.736V189.216C37.1083 189.536 37.1083 189.771 37.1083 189.92C37.1296 190.069 37.1723 190.24 37.2363 190.432C37.3216 190.624 37.4496 190.763 37.6203 190.848C37.7909 190.933 38.0149 190.976 38.2923 190.976C38.5056 190.976 38.7829 190.933 39.1243 190.848ZM35.8603 182.72C35.5403 182.997 35.1669 183.2 34.7403 183.328C34.0789 183.541 32.9056 183.733 31.2203 183.904C29.5349 184.075 28.2656 184.352 27.4123 184.736C26.1323 185.312 25.4923 186.315 25.4923 187.744C25.4923 188.853 25.8763 189.728 26.6443 190.368C27.4123 191.008 28.4469 191.328 29.7483 191.328C31.4976 191.328 32.9483 190.784 34.1003 189.696C35.2736 188.608 35.8603 187.243 35.8603 185.6V182.72ZM42.3563 176.736V192H41.0763V175.616H51.9563V176.736H42.3563ZM67.093 190.848V191.872C66.7303 192 66.293 192.064 65.781 192.064C65.0557 192.064 64.5543 191.872 64.277 191.488C64.021 191.083 63.893 190.357 63.893 189.312V188.512C63.189 189.877 62.3357 190.88 61.333 191.52C60.3303 192.139 59.0503 192.448 57.493 192.448C55.7863 192.448 54.453 192.043 53.493 191.232C52.5543 190.421 52.085 189.301 52.085 187.872C52.085 184.864 54.1757 183.189 58.357 182.848C60.5543 182.677 61.9197 182.539 62.453 182.432C62.9863 182.304 63.3597 182.069 63.573 181.728C63.7223 181.493 63.797 180.928 63.797 180.032C63.797 178.795 63.4023 177.856 62.613 177.216C61.8237 176.576 60.6717 176.256 59.157 176.256C56.1063 176.256 54.453 177.717 54.197 180.64H52.981C53.0877 178.869 53.685 177.515 54.773 176.576C55.861 175.637 57.365 175.168 59.285 175.168C61.4823 175.168 63.1037 175.755 64.149 176.928C64.4477 177.269 64.6717 177.685 64.821 178.176C64.9703 178.645 65.045 179.029 65.045 179.328C65.0663 179.627 65.077 180.096 65.077 180.736V189.216C65.077 189.536 65.077 189.771 65.077 189.92C65.0983 190.069 65.141 190.24 65.205 190.432C65.2903 190.624 65.4183 190.763 65.589 190.848C65.7597 190.933 65.9837 190.976 66.261 190.976C66.4743 190.976 66.7517 190.933 67.093 190.848ZM63.829 182.72C63.509 182.997 63.1357 183.2 62.709 183.328C62.0477 183.541 60.8743 183.733 59.189 183.904C57.5037 184.075 56.2343 184.352 55.381 184.736C54.101 185.312 53.461 186.315 53.461 187.744C53.461 188.853 53.845 189.728 54.613 190.368C55.381 191.008 56.4157 191.328 57.717 191.328C59.4663 191.328 60.917 190.784 62.069 189.696C63.2423 188.608 63.829 187.243 63.829 185.6V182.72ZM80.693 179.456C80.693 180.437 80.373 181.28 79.733 181.984C79.093 182.667 78.261 183.072 77.237 183.2V183.232C78.4103 183.339 79.349 183.787 80.053 184.576C80.757 185.344 81.109 186.283 81.109 187.392C81.109 188.971 80.4797 190.219 79.221 191.136C77.9837 192.032 76.4903 192.48 74.741 192.48C72.6717 192.48 71.0397 191.957 69.845 190.912C68.6503 189.845 68.053 188.363 68.053 186.464H69.333C69.333 189.707 71.1357 191.328 74.741 191.328C76.0637 191.328 77.237 190.965 78.261 190.24C79.285 189.493 79.797 188.544 79.797 187.392C79.797 186.219 79.3277 185.344 78.389 184.768C77.4503 184.192 76.1597 183.904 74.517 183.904H73.045V182.784H74.197C75.6477 182.784 76.885 182.528 77.909 182.016C78.933 181.483 79.445 180.629 79.445 179.456C79.445 178.432 79.0077 177.653 78.133 177.12C77.2797 176.565 76.213 176.288 74.933 176.288C71.733 176.288 70.0157 177.653 69.781 180.384H68.469C68.4903 178.699 69.0983 177.408 70.293 176.512C71.4877 175.616 73.045 175.168 74.965 175.168C76.629 175.168 77.9943 175.531 79.061 176.256C80.149 176.96 80.693 178.027 80.693 179.456ZM95.786 192V177.28H95.754L85.61 192H84.042V175.616H85.322V190.4H85.354L95.466 175.616H97.066V192H95.786ZM112.38 192V183.84H101.916V192H100.636V175.616H101.916V182.752H112.38V175.616H113.66V192H112.38ZM127.416 176.768V192H126.136V175.616H128.184L134.456 190.496L140.696 175.616H142.744V192H141.464V176.768H141.4L135.128 192H133.784L127.48 176.768H127.416ZM158.804 175.616L151.732 193.696C151.412 194.528 151.167 195.115 150.996 195.456C150.847 195.797 150.601 196.203 150.26 196.672C149.919 197.141 149.503 197.461 149.012 197.632C148.543 197.803 147.956 197.888 147.252 197.888C146.804 197.888 146.388 197.867 146.004 197.824V196.672C146.345 196.736 146.697 196.768 147.06 196.768C147.828 196.768 148.436 196.597 148.884 196.256C149.332 195.936 149.716 195.392 150.036 194.624C150.548 193.451 150.921 192.565 151.156 191.968L144.212 175.616H145.652L151.06 188.448C151.231 188.853 151.476 189.536 151.796 190.496C152.201 189.301 152.457 188.565 152.564 188.288L157.428 175.616H158.804ZM172.287 179.456C172.287 180.437 171.967 181.28 171.327 181.984C170.687 182.667 169.855 183.072 168.831 183.2V183.232C170.004 183.339 170.943 183.787 171.647 184.576C172.351 185.344 172.703 186.283 172.703 187.392C172.703 188.971 172.073 190.219 170.815 191.136C169.577 192.032 168.084 192.48 166.335 192.48C164.265 192.48 162.633 191.957 161.439 190.912C160.244 189.845 159.647 188.363 159.647 186.464H160.927C160.927 189.707 162.729 191.328 166.335 191.328C167.657 191.328 168.831 190.965 169.855 190.24C170.879 189.493 171.391 188.544 171.391 187.392C171.391 186.219 170.921 185.344 169.983 184.768C169.044 184.192 167.753 183.904 166.111 183.904H164.639V182.784H165.791C167.241 182.784 168.479 182.528 169.503 182.016C170.527 181.483 171.039 180.629 171.039 179.456C171.039 178.432 170.601 177.653 169.727 177.12C168.873 176.565 167.807 176.288 166.527 176.288C163.327 176.288 161.609 177.653 161.375 180.384H160.063C160.084 178.699 160.692 177.408 161.887 176.512C163.081 175.616 164.639 175.168 166.559 175.168C168.223 175.168 169.588 175.531 170.655 176.256C171.743 176.96 172.287 178.027 172.287 179.456ZM187.38 192V177.28H187.348L177.204 192H175.636V175.616H176.916V190.4H176.948L187.06 175.616H188.66V192H187.38ZM202.982 192V184.032C202.406 184.267 201.542 184.533 200.39 184.832C199.259 185.131 198.267 185.28 197.414 185.28C195.579 185.28 194.246 184.864 193.414 184.032C192.582 183.2 192.166 181.824 192.166 179.904V175.616H193.446V180.128C193.446 181.621 193.776 182.667 194.438 183.264C195.12 183.84 196.123 184.128 197.446 184.128C198.299 184.128 199.291 183.979 200.422 183.68C201.552 183.36 202.406 183.072 202.982 182.816V175.616H204.262V192H202.982ZM219.63 192V183.84H209.166V192H207.886V175.616H209.166V182.752H219.63V175.616H220.91V192H219.63ZM236.224 192V177.28H236.192L226.048 192H224.48V175.616H225.76V190.4H225.792L235.904 175.616H237.504V192H236.224ZM253.105 175.616L247.185 183.36L253.745 192H252.081L246.353 184.32L240.593 192H239.057L245.553 183.424L239.569 175.616H241.233L246.353 182.464L251.569 175.616H253.105ZM270.15 176.736V192H268.87V176.736H262.662V175.616H276.358V176.736H270.15ZM284.703 175.136C286.985 175.136 288.809 175.936 290.175 177.536C291.561 179.115 292.255 181.237 292.255 183.904C292.255 186.528 291.561 188.619 290.175 190.176C288.809 191.712 286.975 192.48 284.671 192.48C282.345 192.48 280.489 191.701 279.103 190.144C277.737 188.565 277.055 186.453 277.055 183.808C277.055 181.205 277.748 179.115 279.135 177.536C280.543 175.936 282.399 175.136 284.703 175.136ZM284.671 176.256C282.793 176.256 281.268 176.949 280.095 178.336C278.943 179.723 278.367 181.547 278.367 183.808C278.367 186.112 278.932 187.947 280.062 189.312C281.215 190.677 282.761 191.36 284.703 191.36C286.58 191.36 288.084 190.688 289.215 189.344C290.345 187.979 290.911 186.165 290.911 183.904C290.911 181.579 290.345 179.723 289.215 178.336C288.084 176.949 286.569 176.256 284.671 176.256ZM301.954 192H294.946V175.616H301.954C303.575 175.616 304.93 175.936 306.018 176.576C307.106 177.216 307.65 178.24 307.65 179.648C307.65 180.608 307.33 181.419 306.69 182.08C306.071 182.72 305.229 183.115 304.162 183.264V183.296C305.357 183.403 306.306 183.819 307.01 184.544C307.714 185.248 308.066 186.133 308.066 187.2C308.066 188.757 307.479 189.952 306.306 190.784C305.154 191.595 303.703 192 301.954 192ZM301.762 176.736H296.29V182.784H301.09C301.666 182.784 302.221 182.741 302.754 182.656C303.309 182.571 303.874 182.421 304.45 182.208C305.026 181.995 305.485 181.675 305.826 181.248C306.189 180.8 306.37 180.267 306.37 179.648C306.37 178.667 305.911 177.941 304.994 177.472C304.077 176.981 302.999 176.736 301.762 176.736ZM301.09 183.904H296.29V190.88H301.762C303.234 190.88 304.429 190.56 305.346 189.92C306.285 189.259 306.754 188.352 306.754 187.2C306.754 185.003 304.866 183.904 301.09 183.904ZM325.218 190.848V191.872C324.855 192 324.418 192.064 323.906 192.064C323.181 192.064 322.679 191.872 322.402 191.488C322.146 191.083 322.018 190.357 322.018 189.312V188.512C321.314 189.877 320.461 190.88 319.458 191.52C318.455 192.139 317.175 192.448 315.618 192.448C313.911 192.448 312.578 192.043 311.618 191.232C310.679 190.421 310.21 189.301 310.21 187.872C310.21 184.864 312.301 183.189 316.482 182.848C318.679 182.677 320.045 182.539 320.578 182.432C321.111 182.304 321.485 182.069 321.698 181.728C321.847 181.493 321.922 180.928 321.922 180.032C321.922 178.795 321.527 177.856 320.738 177.216C319.949 176.576 318.797 176.256 317.282 176.256C314.231 176.256 312.578 177.717 312.322 180.64H311.106C311.213 178.869 311.81 177.515 312.898 176.576C313.986 175.637 315.49 175.168 317.41 175.168C319.607 175.168 321.229 175.755 322.274 176.928C322.573 177.269 322.797 177.685 322.946 178.176C323.095 178.645 323.17 179.029 323.17 179.328C323.191 179.627 323.202 180.096 323.202 180.736V189.216C323.202 189.536 323.202 189.771 323.202 189.92C323.223 190.069 323.266 190.24 323.33 190.432C323.415 190.624 323.543 190.763 323.714 190.848C323.885 190.933 324.109 190.976 324.386 190.976C324.599 190.976 324.877 190.933 325.218 190.848ZM321.954 182.72C321.634 182.997 321.261 183.2 320.834 183.328C320.173 183.541 318.999 183.733 317.314 183.904C315.629 184.075 314.359 184.352 313.506 184.736C312.226 185.312 311.586 186.315 311.586 187.744C311.586 188.853 311.97 189.728 312.738 190.368C313.506 191.008 314.541 191.328 315.842 191.328C317.591 191.328 319.042 190.784 320.194 189.696C321.367 188.608 321.954 187.243 321.954 185.6V182.72ZM328.45 175.616V179.52C329.517 176.619 331.554 175.168 334.562 175.168C336.781 175.168 338.551 175.968 339.874 177.568C341.218 179.147 341.89 181.259 341.89 183.904C341.89 186.507 341.218 188.608 339.874 190.208C338.551 191.787 336.791 192.576 334.594 192.576C333.079 192.576 331.789 192.203 330.722 191.456C329.655 190.709 328.919 189.653 328.514 188.288V197.92H327.234V175.616H328.45ZM334.498 176.256C332.599 176.256 331.117 176.939 330.05 178.304C328.983 179.648 328.45 181.525 328.45 183.936C328.45 185.28 328.642 186.507 329.026 187.616C329.431 188.704 330.103 189.621 331.042 190.368C332.002 191.115 333.165 191.488 334.53 191.488C336.343 191.488 337.794 190.795 338.882 189.408C339.991 188.021 340.546 186.187 340.546 183.904C340.546 181.557 340.002 179.701 338.914 178.336C337.826 176.949 336.354 176.256 334.498 176.256ZM346.359 169.216V172.448H345.079V169.216H346.359ZM346.359 175.616V192H345.079V175.616H346.359ZM357.11 192H350.102V175.616H357.11C358.732 175.616 360.086 175.936 361.174 176.576C362.262 177.216 362.806 178.24 362.806 179.648C362.806 180.608 362.486 181.419 361.846 182.08C361.228 182.72 360.385 183.115 359.318 183.264V183.296C360.513 183.403 361.462 183.819 362.166 184.544C362.87 185.248 363.222 186.133 363.222 187.2C363.222 188.757 362.636 189.952 361.462 190.784C360.31 191.595 358.86 192 357.11 192ZM356.918 176.736H351.446V182.784H356.246C356.822 182.784 357.377 182.741 357.91 182.656C358.465 182.571 359.03 182.421 359.606 182.208C360.182 181.995 360.641 181.675 360.982 181.248C361.345 180.8 361.526 180.267 361.526 179.648C361.526 178.667 361.068 177.941 360.15 177.472C359.233 176.981 358.156 176.736 356.918 176.736ZM356.246 183.904H351.446V190.88H356.918C358.39 190.88 359.585 190.56 360.502 189.92C361.441 189.259 361.91 188.352 361.91 187.2C361.91 185.003 360.022 183.904 356.246 183.904Z" fill="white"/>
</svg>
